PathFileType	3	(X/Y/Z)	results
DataRate	CameraRate	NumFrames	NumMarkers	Units	OrigDataRate	OrigDataStartFrame	OrigNumFrames
30.0	30.0	4	85	mm	30.0	45	179
Frame#	Time	head			nose			neck			shoulder_r			elbow_r			wrist_r			shoulder_l			elbow_l			wrist_l			hip_r			knee_r			ankle_r			hip_l			knee_l			ankle_l			heel_r			heel_l			mtoe_r			ltoe_r			mtoe_l			ltoe_l			asis_l			asis_r			psi_r			psi_l			mhnd_r			lhnd_r			mhnd_l			lhnd_l			l_lat_knee			r_med_wrist			l_lat_ankle			r_med_ankle			r_lat_knee			xiphoid			l_med_ankle			r_med_knee			l_med_elbow			navel			r_lat_elbow			r_lat_wrist			l_med_wrist			l_lat_elbow			l_med_knee			r_med_elbow			r_lat_ankle			l_lat_wrist			chin			T10			r_eye			l_eye			l_ear			r_ear			spinal_cord_8			spinal_cord_12			spinal_cord_27			spinal_cord_33			up_arm_r_0			up_arm_r_5			up_arm_l_0			up_arm_l_5			front_torso_11			front_torso_7			front_torso_4			front_torso_1			front_torso_10			thigh_r_2			thigh_r_3			thigh_l_1			thigh_l_5			shank_l_0			shank_l_4			shank_r_1			shank_r_2			foot_r_1			foot_r_3			foot_r_5			foot_r_6			foot_r_7			foot_l_1			foot_l_7			foot_l_0			foot_l_4			foot_l_5			foot_l_6			
		X1	Y1	Z1	X2	Y2	Z2	X3	Y3	Z3	X4	Y4	Z4	X5	Y5	Z5	X6	Y6	Z6	X7	Y7	Z7	X8	Y8	Z8	X9	Y9	Z9	X10	Y10	Z10	X11	Y11	Z11	X12	Y12	Z12	X13	Y13	Z13	X14	Y14	Z14	X15	Y15	Z15	X16	Y16	Z16	X17	Y17	Z17	X18	Y18	Z18	X19	Y19	Z19	X20	Y20	Z20	X21	Y21	Z21	X22	Y22	Z22	X23	Y23	Z23	X24	Y24	Z24	X25	Y25	Z25	X26	Y26	Z26	X27	Y27	Z27	X28	Y28	Z28	X29	Y29	Z29	X30	Y30	Z30	X31	Y31	Z31	X32	Y32	Z32	X33	Y33	Z33	X34	Y34	Z34	X35	Y35	Z35	X36	Y36	Z36	X37	Y37	Z37	X38	Y38	Z38	X39	Y39	Z39	X40	Y40	Z40	X41	Y41	Z41	X42	Y42	Z42	X43	Y43	Z43	X44	Y44	Z44	X45	Y45	Z45	X46	Y46	Z46	X47	Y47	Z47	X48	Y48	Z48	X49	Y49	Z49	X50	Y50	Z50	X51	Y51	Z51	X52	Y52	Z52	X53	Y53	Z53	X54	Y54	Z54	X55	Y55	Z55	X56	Y56	Z56	X57	Y57	Z57	X58	Y58	Z58	X59	Y59	Z59	X60	Y60	Z60	X61	Y61	Z61	X62	Y62	Z62	X63	Y63	Z63	X64	Y64	Z64	X65	Y65	Z65	X66	Y66	Z66	X67	Y67	Z67	X68	Y68	Z68	X69	Y69	Z69	X70	Y70	Z70	X71	Y71	Z71	X72	Y72	Z72	X73	Y73	Z73	X74	Y74	Z74	X75	Y75	Z75	X76	Y76	Z76	X77	Y77	Z77	X78	Y78	Z78	X79	Y79	Z79	X80	Y80	Z80	X81	Y81	Z81	X82	Y82	Z82	X83	Y83	Z83	X84	Y84	Z84	X85	Y85	Z85	
45	1.5	-3765.509908548628	1631.8223645597318	-490.72440417668787	-3835.758115203029	1432.4983958365349	-559.6171652979835	-3765.909944620023	1303.1962985972377	-421.3977336405878	-3683.802370822733	1267.4591446324541	-569.2776847276781	-3675.724169193573	1019.5185940632942	-607.8095658104811	-3861.966940312915	926.0882804976708	-622.3287766233051	-3820.975230377197	1288.0524685366756	-304.99711022744015	-3834.9707784055554	1078.975245414887	-182.57227664991336	-3906.757293349817	915.839537910516	-291.09912304859847	-3744.359707234419	851.3383165869589	-483.3643601232725	-3778.0124286351806	475.1299316405838	-516.5741077476574	-3581.576701184891	167.0976887168939	-431.7454955590837	-3836.7786840870913	866.6849696179193	-350.66513731710063	-3895.9732092987138	487.87493174588496	-344.75140633440486	-3999.0209144084242	125.87666237551038	-305.1830699272934	-3542.333976739709	125.26025986350398	-407.1026118494439	-3992.7511207760167	62.457054800601654	-287.1374924145062	-3703.8258263731836	29.922668551024366	-474.9373772904534	-3628.984464047047	33.08128152445894	-500.0415679903246	-4175.094989358366	86.005395486943	-388.470444077847	-4163.383220576913	62.57225300279269	-301.52572845449566	-3862.7698275352855	932.4390395461644	-332.1932262445715	-3726.3761226248457	906.5183140726643	-525.3466134425883	-3681.747465184281	880.0813605436825	-393.29467202479674	-3731.532972801631	889.5438058176902	-329.88178370450174	-3907.5367343608063	868.8464598838219	-627.6631573472038	-3945.94590266228	905.923783431059	-632.027802087501	-3926.9225255802276	843.3606959051103	-303.54089428099223	-3939.119020799652	861.1626852891254	-352.4293591990219	-3909.8103809400277	484.37137293549574	-296.7209348164522	-3843.576357778402	908.5034074225307	-628.8951285916494	-4010.835349046456	119.61953208383069	-253.2350514504541	-3603.5227608221985	148.3561916136787	-408.58471579805024	-3753.184242007352	469.30234003738843	-549.7279664251448	-3829.0041231942764	1136.0232443324635	-471.75501319992156	-4007.9835465284777	113.4252774626432	-335.75687288081497	-3800.6319883964147	471.63566975579107	-483.104130710356	-3802.3196340972772	1085.8520988710677	-183.06719412669625	-3832.656961608711	926.2744872062499	-469.3338520472389	-3682.5147116977487	1031.22118001388	-643.7294469094966	-3868.108012259057	951.0961109337891	-609.0371577769147	-3911.005122747371	910.3357070067234	-262.91222362260453	-3868.8216678659983	1093.6990414608078	-181.38469757791609	-3911.550134924093	487.97848303622135	-391.5039835399587	-3669.087498745097	1020.1909398753437	-573.0615479412406	-3549.508299530911	156.38278008734213	-467.07478463441703	-3907.350574677305	936.9074745788364	-309.44724566319775	-3812.339271463736	1357.408047814388	-537.508683113182	-3683.425618043393	1158.1681846894428	-356.24484916117325	-3814.7916556843497	1465.3639188309492	-587.0820165608454	-3865.70252779217	1464.5483550599427	-535.9488659904204	-3829.3114431010567	1475.0764187061498	-422.2506510282089	-3700.788134735065	1474.2956383364804	-546.8658506367992	-3731.929354983651	1362.5038465091714	-394.7860141870116	-3689.016953140056	1253.67517537089	-358.6802124437564	-3681.908097669667	1012.5575301029579	-368.31594018186354	-3692.8167799920143	1148.2199583818995	-363.47967960773803	-3723.7093494549244	1144.5619371625553	-594.7067858249704	-3642.358317917181	1122.4206216407172	-603.8138247216036	-3849.3706672838566	1251.5487517372248	-273.5582874115962	-3795.36663588992	1142.8005893049926	-203.11003899176998	-3775.5833627944003	954.7721645893969	-483.1978051949521	-3847.6419526024574	1051.2926445189535	-487.0742049906198	-3873.6469773049284	1179.327140206531	-428.72312235791287	-3850.1428755226034	987.4457556081084	-399.0600341006873	-3795.30863434375	1217.1129624040534	-543.2768239430285	-3771.593328574448	647.9087223394458	-486.5669729607814	-3721.0945719147567	615.3417660929291	-565.3175253417672	-3874.2002448639423	594.2221262702601	-392.3719497758086	-3887.5669018348794	770.0138894644571	-254.70574837255432	-3997.4077798824824	226.66782635871846	-253.96831343347037	-3929.7273288009687	341.1749132244947	-375.9704739138276	-3661.850483460246	350.80306138252456	-526.1683256453557	-3699.9840334750784	306.8724307215981	-442.79953906492824	-3678.381675769547	25.59752550825474	-482.3460864615557	-3655.480029470419	27.214520979880806	-494.68865913008744	-3652.4988180288997	74.23966511282062	-444.105161349895	-3627.184665378148	74.76960495339597	-468.6089594814955	-3601.077906416401	61.3273486170378	-480.8141047685547	-4175.331428273368	68.41955294294104	-338.64325424789644	-4094.411725803802	83.8862185911082	-277.1126921329069	-4175.098176948716	66.56530181888442	-323.15161972786433	-4175.087791780819	70.6011215433248	-357.41169487576605	-4128.839616803483	78.47020077294212	-325.99579135360227	-4090.724213503342	88.42579529642106	-337.62623846778126	
46	1.5333333333333332	-3794.8155376362083	1622.5678313558462	-501.9361682016319	-3860.0852940372074	1423.0522070102327	-575.0418596488477	-3807.938770162585	1295.782541025362	-423.3002000719085	-3717.950502601704	1254.9342157235262	-558.4801522443314	-3714.1309254422777	1004.4631385128588	-575.0370278291068	-3901.063343182831	919.180221008604	-612.580282209133	-3877.304641490661	1277.0414341679943	-326.0992954735239	-3884.8186429780326	1079.405609813723	-185.45569916401286	-3951.6808198077683	917.6386326762896	-299.058223772599	-3775.0106778539657	846.8733546918355	-474.5727229593502	-3831.4457445651083	475.7015251616273	-532.600469516006	-3623.795102588228	184.03093673494593	-420.9034244396666	-3884.0392029390846	864.7922313032601	-355.50314097529514	-3952.218454979136	486.94178406111735	-350.0005112917275	-4013.6701821002853	115.57134990782464	-310.82251144266473	-3584.5043541889236	148.32323351713717	-390.9137660318519	-4003.4795937449762	52.21622937715577	-290.2275746958171	-3718.965371787905	24.504876863436248	-470.6613585946756	-3643.4914196804693	40.053074063954476	-488.0786735008772	-4180.54939134466	63.01900711785634	-402.4851562774355	-4173.169433209206	49.34342314511394	-313.01909628583	-3909.9209671463946	931.3476055811772	-339.9833089920505	-3749.4985177142444	901.6157186390568	-513.084465404669	-3724.2638743585812	872.6828646926457	-376.50317991402517	-3781.8538087722764	883.58225235352	-320.3433023567576	-3948.6556540405195	863.951312554555	-620.7305823669313	-3983.478857570325	902.2902543865641	-634.3875326073761	-3970.2339298227803	845.115571611134	-313.57733267296777	-3981.9904668346016	863.873296501625	-362.2155780990703	-3972.737033764629	485.3851115543747	-304.6088954499021	-3882.98688831492	900.2099679754003	-614.5625900722871	-4032.7112771045595	109.05524340992967	-261.1002204041406	-3646.4604313178784	164.47681635947686	-399.14993698749635	-3803.917673245692	470.47899899222864	-563.5961055530987	-3865.363744947067	1126.650367655494	-473.8990266292145	-4016.009029693766	101.32047647119552	-341.83163245626645	-3855.6402814741587	472.4648520519106	-500.2218462990715	-3852.375838294299	1087.1044766718426	-186.80668205090092	-3867.2733383074883	917.0089916389999	-466.11485802176094	-3714.3805211437216	1013.2073612913553	-612.4104958724274	-3907.6935640879683	945.5511137529105	-602.5609176611985	-3956.2711344747668	911.3669894799173	-271.08621970898747	-3919.0621831880644	1093.2420396150947	-185.32765404344855	-3959.395875628379	486.4439306702851	-398.5277791431712	-3713.31409107049	1007.9457503823584	-539.8358007830337	-3588.0688476213763	174.5644381590929	-452.92483023182393	-3952.389490769344	939.1341138027055	-316.89934532608873	-3841.2698210860976	1348.0689369247327	-548.5980555049786	-3729.482136401417	1153.4453035333167	-348.0248139723388	-3835.1152900310967	1454.8716898630626	-600.3019564865319	-3892.0801755416555	1456.1996865704355	-556.0253331530471	-3870.1166226831124	1468.6796550207616	-438.874626846869	-3726.9355902537222	1462.5925423128956	-546.1590031378736	-3776.690115051817	1356.1443503230776	-395.72806095082996	-3735.7403476864442	1248.7869779880825	-353.463489838837	-3725.690640004963	1007.594892924591	-356.0097445268753	-3738.1866719538484	1143.2062345214194	-355.6992147690075	-3758.275151020775	1131.4814376122267	-580.30362668234	-3677.552155410035	1106.3378025423078	-573.7643654200506	-3904.506946340658	1242.7202676964396	-291.32410460100294	-3847.122174250765	1142.2087216541372	-211.88877877563007	-3809.5531282112875	945.7738199451466	-476.2481937855244	-3881.968365448702	1041.3437749621864	-488.33483931782524	-3913.6326556585104	1170.5609782968954	-435.6638859561952	-3890.765738122934	979.7978397051033	-399.0942756494455	-3826.917675772844	1206.2143370535666	-544.7352623878435	-3815.0743894869747	646.2604579005484	-491.45144705752426	-3761.428147794053	614.6010395504253	-568.4718504945629	-3920.143118656513	591.9732885964356	-396.0267660812955	-3951.387362474514	771.6437979032011	-266.50572590637455	-4032.973506419021	216.8910971945581	-264.4964636638126	-3961.76574027884	336.3693696679067	-379.5244603040571	-3707.0644315078985	359.29560470382677	-527.9348680977615	-3749.5651621864918	315.13876393783596	-446.82824797186845	-3692.5046060746026	24.50583676526673	-475.22518492871075	-3669.014581042557	29.78388926344591	-485.21518310007855	-3679.6347491772804	77.89195458569435	-436.7201510885207	-3652.275664569665	82.20887897593657	-458.5001404543739	-3623.085138790417	73.22863523215479	-467.3596617400129	-4183.248005303191	50.992758069630284	-351.10273297699405	-4105.5750711939645	73.77210497348489	-287.689463626491	-4183.790640315336	50.84771812345826	-335.50889111004625	-4182.064857518819	51.108328470383164	-369.96167697456065	-4137.480607846303	62.752060151213676	-337.3358699431057	-4098.855173894985	71.6895475620729	-348.07655437088584	
47	1.5666666666666667	-3818.918923470415	1615.6069664569732	-515.0038516670481	-3877.584806492896	1416.166135644517	-593.6977952375098	-3848.157917268331	1290.058316240924	-429.9057167019131	-3746.833513986221	1243.3961582678146	-549.3108814145772	-3736.3229550208	992.6851505456324	-541.6952018624368	-3911.381112466038	909.243952020929	-619.2748942467756	-3921.032877548526	1266.0341499239842	-351.1926661206388	-3935.12907845418	1075.3364793927128	-201.75138653768266	-3985.166970961329	912.9245056548012	-322.8430843539948	-3800.172733059509	836.4205692331366	-460.45816570808194	-3878.8824436519785	475.8323096387469	-554.2407418573309	-3665.4108046679075	201.60767117827433	-413.1823916754283	-3919.7309758733254	861.451519269836	-353.38273019347736	-4011.3012147480686	487.5838537915245	-365.99406844745124	-4016.7365189067095	112.7906241358898	-313.76646775057617	-3627.600810692419	171.37628858462196	-377.93476601213337	-4000.6090096688326	51.94777944620524	-288.15299021799694	-3727.8070308740685	26.519416386151185	-471.4528350230241	-3655.5290685652076	56.782438239872945	-481.52618670970895	-4175.0557604943015	40.664097195189285	-404.3992266850625	-4169.825598780444	47.476732956259106	-314.00069421947416	-3947.5207604282014	928.5600361602355	-345.35007286796707	-3771.764923519347	888.5300954377955	-500.56233840314235	-3758.7866989675226	870.2949896724328	-360.4645460784341	-3821.3395317176164	884.4434162366038	-310.70216887335977	-3957.8593931511223	854.7388768660396	-635.1069497476002	-3986.270544291159	892.6324090728534	-660.1255220996668	-3999.854018682593	840.0371240123634	-339.7645803662595	-4007.319446851551	858.9935364446922	-389.16770915034584	-4038.3174661977287	487.9053008316615	-324.96162993362265	-3894.2910366783226	889.7232521224563	-615.0999870330018	-4045.3050026089822	104.65279761265239	-269.10164168571754	-3688.756250491161	181.4591091837483	-392.7295049530257	-3848.5280208993327	471.4711556797883	-582.5531275964719	-3896.5838736664787	1117.979099039179	-479.97797250239694	-4009.465505982525	97.2953196558059	-343.3832045379805	-3905.110704070761	472.6072284655688	-523.4550916386345	-3902.9463093397594	1084.0910356045388	-200.6287115764885	-3893.7376729225234	908.6778184919407	-465.88473056124195	-3726.8767618596585	998.2352418221874	-578.4819625948469	-3919.105337204684	936.5358765471276	-613.3369916566162	-3992.30788852225	906.1839748779547	-295.5225783247524	-3969.651599784061	1087.9559500240887	-205.36077891438617	-4005.967169638679	487.88935726730705	-414.14303141885773	-3744.775329577339	999.1473606648304	-507.9502852955671	-3626.46150964797	193.2583852269496	-441.54772544222874	-3984.789530556314	934.5966091176797	-340.4794391902194	-3864.386493789621	1341.3040086864994	-563.7435955019728	-3772.869547918679	1152.2285807865483	-343.78753177162406	-3848.5810246124083	1447.0271729381645	-615.6165108733564	-3911.2075718404917	1450.2781170746514	-579.9159776166766	-3905.8144504906613	1464.3968111659974	-461.02942676255975	-3749.032270814127	1453.548512754108	-546.7584238537189	-3820.9901616228267	1352.0507535238685	-401.63735812657336	-3781.0967220986895	1247.158366141541	-352.69981256691864	-3764.6282239240677	1006.3760897191238	-346.8872517366746	-3780.607928630173	1141.530093176828	-351.8599371027812	-3778.8159484016	1117.2759726276995	-569.6517858446845	-3702.3663876117585	1095.4597578609757	-540.1444347089139	-3950.1920046925384	1232.5154402213973	-317.2299930601504	-3897.1424216218334	1138.0591821372316	-227.95899558970757	-3836.1196014773213	938.7707302506878	-471.9094296863975	-3909.6616697777326	1031.8556710626478	-493.1327157294455	-3949.1065629799587	1161.577228908369	-447.4122600175687	-3924.5703103539176	972.6693412169831	-403.1111354719381	-3854.210428001389	1196.5401832656626	-549.6841049830164	-3853.0171983874375	641.4806293454942	-497.08341651670537	-3795.5134783005046	611.755642737237	-572.0642668116325	-3962.1495797103435	591.0100429347768	-402.75784890487097	-4009.05827901845	772.5998686425605	-280.8640276383968	-4062.9157802122045	210.48504732048377	-280.48452479769946	-3988.351252243687	336.84106895358457	-385.60983349568136	-3748.832843902815	367.5651950603603	-534.0380019933887	-3795.7913765737057	323.7145861533813	-455.2570218600001	-3701.5482113469316	31.73658241201391	-473.515893326319	-3678.728653438961	41.723997518000765	-481.19433679026736	-3702.7761135419087	85.41268458842296	-433.31991423791294	-3674.9341892664256	95.55587836422087	-452.38470262381645	-3643.8823690659733	92.61659644125028	-458.5788752395447	-4179.092963951694	40.657021535897094	-351.71367320147897	-4102.144860341469	75.61474451259625	-293.1459942027662	-4179.9515877354215	44.06194017675366	-336.5099668191216	-4177.529489037366	36.47005354266596	-370.0738967599347	-4133.322591141358	54.28635692585761	-339.8066768192097	-4094.2719676525626	59.75932919449009	-351.30713380174393	
48	1.6	-3839.330270564637	1611.3335674241969	-528.5655108483994	-3890.247596018434	1412.4551518674414	-613.8055799175166	-3882.187351291339	1286.6515979605706	-439.9307470235118	-3771.287183805033	1238.4926391600825	-545.467203314782	-3743.7808085369597	990.5471788450814	-517.3437638616715	-3895.897915961541	903.5010007269439	-630.9648414556342	-3952.9816946928	1257.014984818995	-381.7468707940781	-3988.715193872367	1067.708517521094	-234.15561446434165	-4012.924029468614	903.0199501653419	-359.99776654949125	-3824.2581813811867	826.3352004616794	-446.91619650768916	-3915.616149011485	478.6364484815397	-574.674670812662	-3709.362216976024	211.35524536012767	-411.3136438715806	-3951.5664814469324	857.9900476180571	-351.1224693592698	-4058.7245659787773	488.71079907541	-390.91669292432937	-4019.1072649101943	119.54309715343453	-317.61657617654237	-3676.0229960213655	183.42068295775636	-371.5374285160349	-3997.6716163716546	61.81639474027132	-287.68633671086195	-3740.6081196313908	30.740207483520354	-482.3880642155287	-3672.4623315118833	70.67467008994085	-480.7096723211666	-4169.499306380971	33.09191500061175	-404.8286734692272	-4166.248910771046	51.76066191947796	-316.0222880774298	-3981.8016648009325	924.5125908367645	-352.0887404443008	-3794.7084267111577	874.9929560465936	-490.39016402940524	-3790.8451142279637	871.9079630405593	-348.601933051448	-3857.0541237463017	888.8647990261616	-304.8051087788939	-3937.443939744513	848.2110698678147	-655.4319464719674	-3959.1531539417433	885.0882856692186	-687.6472103762391	-4022.714138251455	829.6385949159162	-378.2719908155955	-4021.82603721088	847.9618457389198	-428.46379372729086	-4089.11245452821	489.9076339554959	-353.0548198369413	-3880.287125223286	884.2371333734445	-622.2605383638933	-4051.145160385671	109.40529394599203	-275.8059630669146	-3734.234487121092	189.1558365426515	-395.25589208627554	-3883.01673720165	475.01922931190984	-600.4023801416573	-3921.204056136535	1112.3380542964208	-490.4881034126581	-4006.5194500506154	103.95465893263506	-345.3414873343052	-3944.0664364912122	475.3581496206033	-545.9203840328038	-3957.4353726037198	1077.280352306725	-227.5536419072449	-3915.2457774602426	903.5446586290086	-470.90333364920235	-3726.234010564043	994.9961262545377	-551.1907222397119	-3904.7628557818152	930.9205413155199	-627.9065551346026	-4024.593258502237	896.3445053435903	-334.2663647483461	-4022.34838077341	1079.416047533453	-243.94467525721168	-4044.256327643061	490.87678253997484	-436.6422168798628	-3760.553879470566	997.9743420055067	-487.08779704158235	-3666.1766349560858	206.2986839845496	-433.6919148236296	-4009.9588050372336	924.537310808264	-377.5782721368812	-3882.9666136100564	1337.5890395278182	-581.9019733657786	-3813.4465598283837	1152.7112300978217	-342.892621751646	-3857.8007024750173	1442.5746720044606	-631.5275066590932	-3924.7886611618364	1447.3200049176053	-605.1215161111577	-3936.0716868935438	1462.2659069760925	-486.75028397799423	-3768.944400664971	1447.7057458301526	-549.2344442915581	-3859.55355636196	1349.9209620917566	-410.5207450995426	-3822.776519173133	1247.1824422176749	-355.01372857975315	-3801.7008031731316	1007.0734324374064	-341.4277228341254	-3820.045139951574	1141.6446496115186	-351.4654531217285	-3787.7164649158576	1109.0786969780877	-563.4960696452704	-3719.146745488527	1095.938434846206	-515.3640280147736	-3986.872876634256	1223.1570639046793	-352.8981145763192	-3948.1597046769766	1131.0678496642968	-254.27549606412848	-3857.993031116836	934.9040635533815	-471.5615537184349	-3930.9034410534464	1025.641861776527	-502.7768381609112	-3977.8400904932287	1155.3567386928923	-464.76442063588894	-3953.979968254088	968.1660709291594	-413.37224389799735	-3873.4115219149826	1190.316152116624	-557.2832206803391	-3884.853584202337	638.2720393163161	-502.5576491571522	-3823.2067941646083	610.5804726773928	-574.9816160381088	-3998.1081079475143	591.4102124288137	-415.5033740957564	-4054.199277704605	771.5000158808274	-295.27509995776114	-4081.5564650802535	211.0911928967603	-295.1787557230971	-4013.481817097345	342.0113025571869	-399.1153265317563	-3783.711861205779	377.0418413855193	-538.3069397928133	-3839.1651624879833	327.5972394744394	-468.91972741435524	-3715.2949881188306	39.458637476593424	-480.33015621305566	-3693.177455818784	52.687468400180656	-484.23553391503884	-3729.7555478415334	90.73744387937887	-439.59043787897645	-3701.0641212786745	105.2693590057166	-453.9831015686265	-3669.331986750136	106.71876635954608	-455.4641643501319	-4174.646449896224	39.93575912804909	-352.68718021399326	-4099.323404319678	83.28094500058266	-297.7248318746894	-4175.861370787464	45.29204734545084	-338.0817860983276	-4172.652059646635	33.39990209579817	-370.30472670284547	-4129.283580732523	55.61163164267842	-341.7812416776494	-4090.0589570297666	60.04594166100342	-353.136016935782	
